<svg width="28" height="28" viewBox="0 0 28 28" fill="none" xmlns="http://www.w3.org/2000/svg"><title>ChatGPT</title>
<g clip-path="url(#clip0_634_10658)">
<path d="M25.9958 11.4579C26.3088 10.5151 26.4171 9.51635 26.3134 8.52835C26.2096 7.54035 25.8962 6.58586 25.3941 5.72865C24.6497 4.43298 23.5131 3.40717 22.1482 2.79911C20.7832 2.19104 19.2604 2.03214 17.7993 2.34532C16.9693 1.42198 15.9108 0.733304 14.7304 0.348469C13.5499 -0.036367 12.289 -0.103816 11.0742 0.152896C9.85941 0.409609 8.73356 0.981443 7.80972 1.81097C6.88588 2.64049 6.19657 3.6985 5.81103 4.87874C4.83764 5.07834 3.91807 5.48341 3.11376 6.06686C2.30946 6.65032 1.63895 7.39873 1.14705 8.26207C0.394587 9.55558 0.0729912 11.0549 0.228753 12.5432C0.384514 14.0315 1.00956 15.4317 2.01353 16.5414C1.69931 17.4838 1.58994 18.4824 1.69275 19.4704C1.79557 20.4584 2.10819 21.4131 2.6097 22.2706C3.35501 23.5667 4.4926 24.5928 5.85852 25.2008C7.22445 25.8089 8.74816 25.9676 10.2101 25.654C10.8695 26.3967 11.6799 26.9901 12.5869 27.3946C13.494 27.7992 14.4769 28.0055 15.4701 28C16.9677 28.0013 18.4269 27.5268 19.6373 26.6449C20.8476 25.7629 21.7464 24.5192 22.2039 23.0932C23.1771 22.8933 24.0966 22.488 24.9008 21.9046C25.7051 21.3211 26.3757 20.5729 26.8678 19.7098C27.6114 18.4181 27.9275 16.9245 27.7708 15.4424C27.6142 13.9603 26.9929 12.5656 25.9958 11.4579ZM15.4701 26.1674C14.2436 26.1693 13.0556 25.7394 12.1143 24.9531L12.2798 24.8593L17.8545 21.6414C17.9933 21.56 18.1085 21.444 18.1888 21.3046C18.2691 21.1653 18.3118 21.0074 18.3127 20.8466V12.9868L20.6693 14.3502C20.681 14.3561 20.6911 14.3647 20.6988 14.3752C20.7065 14.3858 20.7116 14.398 20.7137 14.4109V20.9239C20.7107 22.3137 20.1573 23.6457 19.1746 24.6284C18.1919 25.6111 16.8599 26.1644 15.4701 26.1674ZM4.19928 21.3544C3.58418 20.2923 3.36333 19.0473 3.57558 17.8384L3.74125 17.9378L9.32141 21.1557C9.45949 21.2367 9.61668 21.2795 9.77676 21.2795C9.93685 21.2795 10.094 21.2367 10.2321 21.1557L17.0487 17.2258V19.9469C17.0481 19.961 17.0443 19.9748 17.0375 19.9872C17.0308 19.9997 17.0214 20.0104 17.01 20.0187L11.3635 23.2752C10.1585 23.9694 8.72729 24.157 7.38406 23.7969C6.04083 23.4367 4.89541 22.5583 4.19928 21.3544ZM2.73115 9.2115C3.35051 8.14257 4.32812 7.32726 5.4909 6.9099V13.5333C5.4888 13.6933 5.52968 13.851 5.60929 13.9898C5.68889 14.1286 5.80429 14.2435 5.94345 14.3226L12.7269 18.2359L10.3701 19.5992C10.3574 19.6059 10.3432 19.6095 10.3287 19.6095C10.3143 19.6095 10.3001 19.6059 10.2873 19.5992L4.65195 16.3482C3.44919 15.6511 2.57172 14.5057 2.21171 13.1629C1.85169 11.8201 2.03847 10.3893 2.73115 9.18397V9.2115ZM22.0935 13.7099L15.288 9.75797L17.6393 8.39997C17.652 8.3932 17.6663 8.38966 17.6807 8.38966C17.6951 8.38966 17.7094 8.3932 17.7221 8.39997L23.3575 11.6565C24.2191 12.1537 24.9215 12.8857 25.3827 13.7671C25.844 14.6485 26.0449 15.643 25.9622 16.6343C25.8794 17.6257 25.5164 18.573 24.9154 19.3658C24.3144 20.1585 23.5004 20.7639 22.5682 21.1114V14.488C22.5633 14.3282 22.517 14.1725 22.4337 14.0361C22.3505 13.8997 22.2333 13.7873 22.0935 13.7099ZM24.4393 10.183L24.2736 10.0836L18.7046 6.83815C18.5656 6.75663 18.4075 6.71365 18.2464 6.71365C18.0853 6.71365 17.9272 6.75663 17.7883 6.83815L10.9774 10.768V8.04694C10.9759 8.0331 10.9782 8.01913 10.9841 8.0065C10.9899 7.99388 10.999 7.98306 11.0105 7.97519L16.6459 4.72415C17.5096 4.22659 18.4971 3.98523 19.4929 4.0283C20.4887 4.07138 21.4517 4.3971 22.2692 4.96738C23.0867 5.53767 23.725 6.32893 24.1093 7.24862C24.4936 8.16832 24.6081 9.17843 24.4394 10.1608L24.4393 10.183ZM9.69113 15.0068L7.33446 13.649C7.32267 13.6419 7.31259 13.6323 7.30493 13.6209C7.29727 13.6095 7.29221 13.5965 7.29013 13.5829V7.08654C7.29143 6.08994 7.57641 5.11431 8.11176 4.2737C8.6471 3.4331 9.41069 2.76227 10.3132 2.33965C11.2158 1.91703 12.22 1.76008 13.2085 1.88715C14.1969 2.01422 15.1288 2.42006 15.8951 3.05722L15.7294 3.15114L10.1549 6.3688C10.0161 6.45018 9.90094 6.56624 9.82062 6.7056C9.74029 6.84495 9.6976 7.00281 9.69673 7.16365L9.69113 15.0068ZM10.9717 12.2472L14.0073 10.4974L17.0487 12.2472V15.7465L14.0184 17.4961L10.9773 15.7465L10.9717 12.2472Z" fill="black"/>
</g>
<defs>
<clipPath id="clip0_634_10658">
<rect width="28" height="28" fill="white"/>
</clipPath>
</defs>
</svg>
